<!-- License: CC Attribution. Made by zafdesign: https://dribbble.com/zafdesign -->
<svg width="30px" height="30px" viewBox="0 -4.2 30.03 30.03" id="_15_-_Email" fill="#fff" data-name="15 - Email" xmlns="http://www.w3.org/2000/svg">
  <path id="Path_243" data-name="Path 243" d="M31.015,8.189a3,3,0,0,0-3-3H3.985a3,3,0,0,0-3,3V23.811a3,3,0,0,0,3,3h24.03a3,3,0,0,0,3-3V8.189Zm-2,0V23.811a1,1,0,0,1-1,1H3.985a1,1,0,0,1-1-1V8.189a1,1,0,0,1,1-1h24.03a1,1,0,0,1,1,1Z" transform="translate(-0.985 -5.189)" fill-rule="evenodd"/>
  <path id="Path_244" data-name="Path 244" d="M2.9,8.465l12.613,7.008a1.006,1.006,0,0,0,.972,0L29.1,8.465a1,1,0,1,0-.971-1.748L16,13.455,3.872,6.717A1,1,0,1,0,2.9,8.465Z" transform="translate(-0.985 -5.189)" fill-rule="evenodd"/>
</svg>
